<?xml version="1.0" encoding="UTF-8" standalone="no"?>
<!DOCTYPE svg PUBLIC "-//W3C//DTD SVG 1.1//EN" "http://www.w3.org/Graphics/SVG/1.1/DTD/svg11.dtd">
<svg width="100%" height="100%" viewBox="0 0 1731 1555" version="1.1" xmlns="http://www.w3.org/2000/svg" xmlns:xlink="http://www.w3.org/1999/xlink" xml:space="preserve" xmlns:serif="http://www.serif.com/" style="fill-rule:evenodd;clip-rule:evenodd;stroke-linejoin:round;stroke-miterlimit:2;">
    <g transform="matrix(1,0,0,1,-384.607,-222.691)">
        <path d="M1884.88,1662.61C1707.38,1778.21 1508.23,1720.86 1316.63,1732.73C1128.8,1744.37 888.393,1847.35 632.554,1693.9C337.079,1516.67 287.555,1020.57 582.846,812.905C878.136,605.242 846.905,476.231 1100.1,418.727C1307.13,371.705 1440.34,489.77 1676.06,577.083C2101.81,734.789 2304.03,1389.67 1884.88,1662.61Z" style="fill:rgb(255,243,185);"/>
        <path d="M388.913,1150.75C465.594,1120.54 578.872,1098.69 738.297,1117.86C1097.35,1161.04 1085.98,1269.98 1354.14,1275.55C1614.72,1280.97 1762.58,1149.07 2111.07,1154.66C2131.65,1331.31 2079.95,1508.83 1930.01,1629.88L549.428,1629.88C425.507,1509.84 367.682,1323.58 388.916,1150.75L388.913,1150.75Z" style="fill:rgb(255,218,43);"/>
        <path d="M2023.71,1116.14C2034.86,1116.14 2043.92,1146.45 2043.92,1169.68C2043.92,1192.91 2034.86,1200.32 2023.71,1200.32C2012.56,1200.32 2003.51,1192.91 2003.51,1169.68C2003.51,1146.45 2012.56,1116.14 2023.71,1116.14ZM1946.81,1150.62C1957.96,1150.62 1967.02,1180.93 1967.02,1204.16C1967.02,1227.39 1957.96,1234.8 1946.81,1234.8C1935.66,1234.8 1926.61,1227.39 1926.61,1204.16C1926.61,1180.93 1935.66,1150.62 1946.81,1150.62ZM459.683,1182.1C470.833,1182.1 479.885,1212.42 479.885,1235.65C479.885,1258.88 470.833,1266.29 459.683,1266.29C448.533,1266.29 439.48,1258.88 439.48,1235.65C439.48,1212.42 448.533,1182.1 459.683,1182.1ZM950.319,1274.98C961.469,1274.98 970.521,1305.3 970.521,1328.53C970.521,1351.76 961.469,1359.17 950.319,1359.17C939.168,1359.17 930.116,1351.76 930.116,1328.53C930.116,1305.3 939.168,1274.98 950.319,1274.98Z" style="fill:rgb(235,151,0);"/>
        <path d="M393.141,1322.71C402.572,1320.73 412.349,1319.68 422.368,1319.68C471.388,1319.68 514.607,1344.71 539.912,1382.68C554.308,1374.76 570.836,1370.27 588.405,1370.27C611.694,1370.27 633.152,1378.17 650.227,1391.45C671.801,1363.69 705.527,1345.83 743.392,1345.83C796.637,1345.83 841.697,1381.15 856.381,1429.63C864.899,1427.3 873.859,1426.06 883.105,1426.06C909.305,1426.06 933.209,1435.97 951.26,1452.25C972.171,1433.94 999.547,1422.86 1029.49,1422.86C1086.33,1422.86 1133.92,1462.78 1145.72,1516.09L1153.78,1515.94C1161.33,1469.28 1201.84,1433.61 1250.63,1433.61C1257.49,1433.61 1264.2,1434.32 1270.67,1435.67C1294.13,1414.42 1325.26,1401.47 1359.4,1401.47C1400.12,1401.47 1436.56,1419.9 1460.83,1448.87C1478.93,1434.84 1501.66,1426.51 1526.31,1426.51C1567.77,1426.51 1603.78,1450.09 1621.6,1484.58C1639.43,1450.09 1675.43,1426.51 1716.9,1426.51C1721.16,1426.51 1725.37,1426.76 1729.49,1427.27C1748.61,1409.57 1774.19,1398.75 1802.28,1398.75C1817.59,1398.75 1832.16,1401.97 1845.33,1407.78C1866.15,1380.94 1898.71,1363.67 1935.27,1363.67C1958.6,1363.67 1980.31,1370.71 1998.37,1382.78C2015.66,1338.45 2058.82,1307.01 2109.25,1307.01C2109.54,1307.01 2109.84,1307.02 2110.13,1307.02C2091.23,1445.71 2020.66,1574.2 1884.88,1662.61C1863.54,1676.51 1841.88,1687.91 1819.97,1697.23L638.175,1697.23C636.301,1696.13 634.426,1695.02 632.549,1693.89C501.449,1615.26 418.767,1473.85 393.14,1322.71L393.141,1322.71Z" style="fill:rgb(235,151,0);"/>
        <path d="M1953.88,1609.39C1933.07,1628.39 1910.1,1646.19 1884.88,1662.61C1707.38,1778.21 1508.23,1720.85 1316.63,1732.73C1128.8,1744.37 888.393,1847.34 632.554,1693.9C593.923,1670.72 559.496,1642.1 529.495,1609.39L1953.88,1609.39Z" style="fill:rgb(235,110,0);"/>
        <path d="M1947.81,1614.84C1945.42,1611.84 1943.1,1608.77 1940.85,1605.61C1900.9,1549.61 1891.63,1480.93 1909.67,1419.63C1962.64,1422.02 2014.28,1443.85 2053.16,1483.2C2026.98,1531.19 1992.13,1575.65 1947.81,1614.84Z" style="fill:rgb(255,218,43);"/>
        <path d="M2001.02,1560.03L1915.98,1560.03C1914.66,1556.72 1913.43,1553.38 1912.29,1550.03L1996.56,1550.03L1959.4,1497.94L1901.53,1497.94C1901.27,1494.61 1901.08,1491.28 1900.97,1487.94L1952.27,1487.94L1907.95,1425.83C1908.5,1423.76 1909.07,1421.69 1909.68,1419.64C1911.82,1419.73 1913.96,1419.86 1916.09,1420.02L1978.82,1507.94L1996.95,1442.37C2000,1443.9 2003.01,1445.5 2005.99,1447.18L1986.29,1518.42L2008.97,1550.2C2006.37,1553.5 2003.72,1556.78 2001.02,1560.03Z" style="fill:rgb(235,110,0);"/>
        <path d="M1843.54,1686.33C1809.92,1649.54 1790.8,1602.74 1787.76,1554.57C1848.73,1535.43 1917.57,1543.48 1974.27,1582.42C1975.68,1583.39 1977.08,1584.37 1978.45,1585.37C1951.58,1613.51 1920.47,1639.44 1884.88,1662.61C1871.23,1671.51 1857.44,1679.38 1843.54,1686.33Z" style="fill:rgb(235,186,0);"/>
        <path d="M1938.8,1622.62L1938.8,1562.67C1942.16,1564.15 1945.5,1565.71 1948.8,1567.37L1948.8,1613.96C1945.52,1616.88 1942.19,1619.76 1938.8,1622.62ZM1910.47,1644.92L1899.07,1637.09L1809.84,1637.09C1808.2,1633.79 1806.65,1630.46 1805.19,1627.09L1884.51,1627.09L1788.26,1560.98C1788.06,1558.85 1787.9,1556.72 1787.76,1554.58C1789.81,1553.93 1791.86,1553.32 1793.92,1552.74L1871.95,1606.33L1871.95,1545.49C1875.28,1545.79 1878.62,1546.17 1881.95,1546.63L1881.95,1613.2L1918.92,1638.59C1916.14,1640.72 1913.32,1642.83 1910.47,1644.92Z" style="fill:rgb(235,110,0);"/>
        <path d="M504.537,1579.96C510.844,1560.47 520.06,1541.57 532.299,1523.86C571.412,1467.27 632.869,1435.23 696.654,1431.4C715.615,1492.42 707.366,1561.24 668.253,1617.83C651.356,1642.27 630.29,1662.14 606.667,1677.13C567.75,1649.98 533.619,1617.05 504.537,1579.96Z" style="fill:rgb(255,218,43);"/>
        <path d="M551.828,1632.19L564.578,1613.76L564.641,1613.67L583.795,1585.97L550.797,1500.66C553.29,1497.94 555.842,1495.29 558.45,1492.73L590.671,1576.03L634.639,1512.45L612.112,1454.21C615.093,1452.71 618.106,1451.27 621.147,1449.91C621.194,1450.01 621.239,1450.1 621.281,1450.2L641.515,1502.51L690.367,1431.87C692.459,1431.69 694.555,1431.53 696.654,1431.4C697.302,1433.49 697.918,1435.58 698.503,1437.69L622.179,1548.05L699.943,1548.05C699.102,1551.4 698.177,1554.73 697.169,1558.05L616.618,1558.05C616.231,1558.03 616.132,1558.04 615.749,1557.97C615.622,1557.95 615.497,1557.92 615.374,1557.89L578.252,1611.57L648.646,1611.57L649.038,1611.58C652.844,1612.03 655.03,1617.26 652.181,1620.1C651.441,1620.84 650.463,1621.34 649.428,1621.51C649.083,1621.56 648.994,1621.56 648.646,1621.57L571.336,1621.57L559.213,1639.1C556.726,1636.82 554.265,1634.52 551.829,1632.19L551.828,1632.19Z" style="fill:rgb(235,110,0);"/>
        <path d="M580.885,1657.75C590.482,1642.84 602.089,1628.89 615.692,1616.3C666.166,1569.56 733.116,1551.63 796.209,1561.75C801.46,1625.44 778.457,1690.81 727.983,1737.56C727.303,1738.19 726.62,1738.81 725.933,1739.43C695.084,1727.68 663.933,1712.72 632.55,1693.89C614.392,1683 597.163,1670.91 580.885,1657.75Z" style="fill:rgb(235,186,0);"/>
        <path d="M613.68,1681.92C610.312,1679.67 606.979,1677.37 603.68,1675.03L603.68,1628.32C606.88,1624.86 610.213,1621.48 613.68,1618.18L613.68,1681.92ZM640.864,1698.79L691.69,1651.73L691.69,1570.74C695.003,1569.6 698.337,1568.54 701.69,1567.56L701.69,1642.47L789.847,1560.83C791.972,1561.11 794.093,1561.41 796.209,1561.75C796.385,1563.89 796.53,1566.03 796.642,1568.17L746.641,1614.47L793.236,1614.47L793.577,1614.48C793.819,1614.51 793.917,1614.51 794.1,1614.54C793.557,1617.86 792.936,1621.17 792.237,1624.47L735.843,1624.47L663.277,1691.67L762.425,1691.67L762.886,1691.69C763.681,1691.8 764.41,1692.1 765.039,1692.53C763.138,1695.62 761.152,1698.66 759.082,1701.67L652.478,1701.67L649.989,1703.97C646.95,1702.28 643.908,1700.56 640.864,1698.79Z" style="fill:rgb(235,110,0);"/>
        <path d="M1413.2,839.034C1403.64,816.419 1383.56,799.955 1359.51,795.004C1343.09,791.625 1327.63,788.442 1327.63,788.442L1274.57,831.25L1393.98,1045.9L1460.16,950.073C1460.16,950.073 1431.63,882.605 1413.2,839.034Z" style="fill:rgb(235,151,0);"/>
        <path d="M1555.42,839.609L1578.12,804.331C1578.12,804.331 1584.24,783.633 1588.23,770.133C1590.27,763.224 1588.02,755.762 1582.49,751.141C1575.96,745.684 1567.1,738.283 1560.04,732.378C1557.17,729.982 1553.37,729.011 1549.7,729.74C1546.04,730.467 1542.9,732.816 1541.16,736.126C1533.84,750.118 1523.47,769.899 1523.47,769.899C1523.47,769.899 1518.07,763.294 1513.41,757.597C1511.74,755.561 1509.27,754.352 1506.64,754.285C1504.01,754.217 1501.48,755.299 1499.71,757.247L1499.71,757.248C1497.54,759.634 1496.9,763.036 1498.05,766.049C1501.79,775.916 1509.89,797.208 1509.89,797.208L1501.63,816.087L1555.42,839.609Z" style="fill:rgb(255,184,170);"/>
        <path d="M1551.97,865.504L1564.02,840.179L1496.33,801.226L1481.89,826.328L1551.97,865.504Z" style="fill:white;"/>
        <path d="M1481.89,826.329L1367.36,1021.35C1367.36,1021.35 1379.49,1032.54 1394.03,1045.95C1405.49,1056.52 1421.27,1061.03 1436.59,1058.13C1451.9,1055.23 1464.94,1045.24 1471.73,1031.21C1504.07,964.425 1551.97,865.505 1551.97,865.505L1481.89,826.329Z" style="fill:rgb(235,151,0);"/>
        <path d="M1276.04,1543L1362.6,1543L1362.69,1670.77L1276.13,1670.77L1276.04,1543Z" style="fill:rgb(255,184,170);"/>
        <path d="M1276.09,1618.2C1276.09,1618.2 1343.83,1631.7 1382.23,1639.35C1397.21,1642.34 1408.01,1655.48 1408.02,1670.77L1276.13,1670.77L1276.09,1618.2Z" style="fill:rgb(255,184,170);"/>
        <rect x="1270.5" y="1670.76" width="141.38" height="14.47" style="fill:rgb(0,70,97);"/>
        <path d="M1362.66,1635.45L1381.4,1639.19L1377.1,1639.19C1360.72,1639.19 1347.06,1651.72 1345.64,1668.04C1345.3,1672.01 1345.06,1674.77 1345.06,1674.77L1316.89,1674.77C1316.89,1674.77 1317.14,1671.9 1317.5,1667.71C1319.08,1649.46 1334.36,1635.45 1352.68,1635.45L1362.66,1635.45Z" style="fill:rgb(0,70,97);"/>
        <path d="M1258.87,1577.54L1381.75,1577.54L1381.5,1232.68L1250.63,1232.68L1258.87,1577.54Z" style="fill:rgb(0,70,97);"/>
        <path d="M1099.43,1543L1185.98,1543L1170.64,1670.77L1084.09,1670.77L1099.43,1543Z" style="fill:rgb(255,184,170);"/>
        <path d="M1053.94,1666.07C1055.7,1653.1 1065.35,1642.6 1078.13,1639.76C1112.2,1632.2 1175.21,1618.2 1175.21,1618.2L1170.64,1670.76L1053.3,1670.76C1053.3,1670.76 1053.56,1668.86 1053.94,1666.07Z" style="fill:rgb(255,184,170);"/>
        <path d="M1088.33,1635.45L1080.72,1639.19L1084.54,1639.19C1093.12,1639.19 1101.34,1642.68 1107.29,1648.87C1113.25,1655.06 1116.42,1663.4 1116.09,1671.98C1116.03,1673.72 1115.99,1674.77 1115.99,1674.77L1148.16,1674.77C1148.16,1674.77 1148.2,1673.78 1148.26,1672.13C1148.63,1662.53 1145.08,1653.2 1138.42,1646.28C1131.76,1639.36 1122.57,1635.45 1112.97,1635.45L1088.33,1635.45Z" style="fill:rgb(0,70,97);"/>
        <path d="M1046.43,1670.76L1177.43,1670.76L1176.88,1685.23L1045.88,1685.23L1046.43,1670.76Z" style="fill:rgb(0,70,97);"/>
        <path d="M1079.15,1577.54L1206.56,1577.54L1240.73,1232.68L1109.17,1232.68L1079.15,1577.54Z" style="fill:rgb(0,70,97);"/>
        <path d="M1378.9,822.279C1378.53,808.52 1368.84,796.781 1355.4,793.806C1328.26,787.798 1286.64,778.583 1286.64,778.583L1209.48,778.583L1102.2,798.477L1111.03,1075.34L1089.93,1279.35L1391.36,1279.35C1391.36,1279.35 1381.53,918.612 1378.9,822.279Z" style="fill:rgb(235,110,0);"/>
        <rect x="1243.38" y="778.579" width="26.14" height="119.289" style="fill:white;"/>
        <path d="M1305.38,795.759C1305.31,808.806 1294.7,819.339 1281.65,819.317C1262.69,819.284 1235.98,819.237 1215.72,819.202C1208.05,819.189 1200.69,816.118 1195.29,810.668C1189.88,805.219 1186.87,797.841 1186.92,790.167C1186.95,785.818 1186.97,782.756 1186.97,782.756L1209.48,778.582L1286.64,778.582L1305.45,782.756C1305.45,782.756 1305.42,788.678 1305.38,795.759Z" style="fill:white;"/>
        <path d="M1286.64,781.594C1286.63,786.194 1284.79,790.602 1281.54,793.849C1278.28,797.096 1273.86,798.915 1269.26,798.905C1256.58,798.878 1239.46,798.842 1226.78,798.816C1217.2,798.795 1209.46,791.017 1209.47,781.442C1209.53,749.598 1209.65,685.024 1209.65,685.024L1286.81,685.186C1286.81,685.186 1286.7,749.747 1286.64,781.594Z" style="fill:rgb(255,184,170);"/>
        <path d="M1286.68,748.494L1252.76,756.278L1286.64,780.991L1286.68,748.494Z" style="fill:rgb(220,130,112);"/>
        <path d="M1314.65,609.594L1197.54,612.808C1197.54,612.808 1199.06,668.225 1200.24,710.955C1200.59,723.851 1206.05,736.078 1215.42,744.946C1224.79,753.815 1237.3,758.598 1250.19,758.244C1259.25,757.996 1268.63,757.738 1277.44,757.496C1300.22,756.871 1318.18,737.899 1317.55,715.12C1316.36,671.707 1314.65,609.594 1314.65,609.594Z" style="fill:rgb(0,70,97);"/>
        <path d="M1314.65,609.594L1213.18,612.379C1213.18,612.379 1214.54,662.001 1215.49,696.475C1215.73,705.071 1219.37,713.219 1225.61,719.13C1231.86,725.041 1240.19,728.229 1248.79,727.993C1262.56,727.615 1278.42,727.179 1291.46,726.822C1306.04,726.421 1317.53,714.282 1317.13,699.707C1316.18,665.337 1314.65,609.594 1314.65,609.594Z" style="fill:rgb(255,184,170);"/>
        <path d="M1274.54,694.125C1274.78,702.203 1268.42,708.955 1260.34,709.194C1252.26,709.432 1245.51,703.068 1245.27,694.989L1274.54,694.125Z" style="fill:rgb(220,130,112);"/>
        <path d="M1224.13,612.079L1181.51,613.249L1182.62,653.803C1182.62,653.803 1194.72,653.471 1206.02,653.161C1211.12,653.021 1215.95,650.862 1219.46,647.159C1222.96,643.456 1224.85,638.512 1224.71,633.415C1224.43,622.936 1224.13,612.079 1224.13,612.079Z" style="fill:rgb(0,70,97);"/>
        <path d="M1314.65,609.594L1181.5,613.249C1181.5,613.249 1181.3,605.647 1181.04,596.167C1180.48,575.978 1196.4,559.164 1216.59,558.609C1235.27,558.096 1257.94,557.474 1276.63,556.961C1296.82,556.407 1313.63,572.324 1314.18,592.512C1314.45,601.993 1314.65,609.594 1314.65,609.594Z" style="fill:rgb(235,151,0);"/>
        <path d="M1314.81,615.384L1181.66,619.04L1181.1,598.434L1314.25,594.78L1314.81,615.384Z" style="fill:rgb(235,110,0);"/>
        <path d="M1204.97,687.009C1202.54,687.88 1199.93,688.388 1197.21,688.469C1183.28,688.881 1171.63,677.903 1171.22,663.968C1170.81,650.034 1181.78,638.386 1195.72,637.975C1198.44,637.894 1201.07,638.249 1203.55,638.974L1204.97,687.009Z" style="fill:rgb(255,184,170);"/>
        <path d="M1159.7,859.674C1168.74,840.442 1161.68,817.488 1143.38,806.667C1141.7,805.67 1139.99,804.662 1138.28,803.647C1126.71,796.801 1112.79,795.154 1099.94,799.109C1087.09,803.063 1076.5,812.254 1070.78,824.421C1042.8,883.958 998.447,978.302 998.447,978.302L1058.29,1075.41C1058.29,1075.41 1127.61,927.931 1159.7,859.674Z" style="fill:rgb(235,151,0);"/>
        <path d="M1054.8,1218.61L1069.2,1258.01C1069.2,1258.01 1082,1275.39 1090.35,1286.73C1094.62,1292.53 1101.93,1295.24 1108.95,1293.63C1117.24,1291.72 1128.49,1289.14 1137.47,1287.07C1141.11,1286.24 1144.18,1283.79 1145.81,1280.43C1147.45,1277.07 1147.47,1273.15 1145.88,1269.77C1139.16,1255.48 1129.66,1235.27 1129.66,1235.27C1129.66,1235.27 1133.76,1237.02 1138.09,1238.87C1140.45,1239.88 1143.14,1239.72 1145.37,1238.45C1147.59,1237.17 1149.09,1234.93 1149.41,1232.38C1149.66,1230.43 1148.86,1228.5 1147.31,1227.3C1140.12,1221.69 1119.86,1205.88 1119.86,1205.88L1106.05,1189.96L1054.8,1218.61Z" style="fill:rgb(255,184,170);"/>
        <path d="M1040.81,1194.59L1049.89,1224.42L1124.81,1201.75L1117.78,1171.3L1040.81,1194.59Z" style="fill:white;"/>
        <path d="M1117.78,1171.3L1048.56,871.694C1048.56,871.694 1010.98,951.634 991.149,993.821C983.5,1010.09 982.553,1028.72 988.511,1045.68C1005.72,1094.69 1040.81,1194.59 1040.81,1194.59L1117.78,1171.3Z" style="fill:rgb(235,151,0);"/>
        <path d="M714.369,917.899C679.007,917.984 643.793,931.684 617.657,955.8C595.691,976.07 580.208,1003.35 574.326,1032.77C568.32,1062.8 572.224,1094.75 585.367,1122.33C604.499,1162.47 643.208,1192.86 687.292,1201.39C722.928,1208.29 761.234,1201.04 791.828,1181.35C826.172,1159.25 850.367,1122.1 856.195,1081.42C861.505,1044.36 851.694,1005.35 829.099,975.236C802.948,940.386 760.79,918.297 715.757,917.903C715.294,917.9 714.832,917.899 714.369,917.899ZM714.928,857.899C766.845,858.024 817.709,878.645 854.891,914.206C885.186,943.179 906.227,981.623 914.072,1022.87C922.092,1065.03 916.373,1109.72 897.863,1148.42C871.047,1204.48 817.773,1246.9 756.097,1259.74C716.45,1267.99 674.34,1264.08 637,1248.61C591.552,1229.78 553.305,1193.81 531.737,1149.25C509.004,1102.29 505.355,1046.44 521.935,996.733C539.678,943.542 580.399,898.588 631.608,875.609C657.285,864.086 685.395,858.055 713.619,857.901C714.056,857.899 714.492,857.899 714.928,857.899Z" style="fill:white;"/>
        <path d="M714.599,887.894C810.172,887.894 887.649,965.372 887.649,1060.94C887.649,1156.52 810.172,1233.99 714.599,1233.99C619.026,1233.99 541.55,1156.52 541.55,1060.94C541.55,965.372 619.026,887.894 714.599,887.894Z" style="fill:white;"/>
        <path d="M714.336,897.899C673.437,897.998 633,914.023 603.198,941.935C578.477,965.089 561.163,996.056 554.615,1029.34C547.896,1063.49 552.392,1099.74 567.419,1131.16C584.558,1166.98 615.263,1196.24 652.081,1211.56C691.597,1228.01 737.621,1228 777.117,1211.56C821.972,1192.9 857.548,1153.37 871.183,1106.53C882.672,1067.06 878.561,1023.35 859.806,986.756C837.085,942.422 793.326,909.282 743.205,900.403C733.859,898.747 724.369,897.921 714.863,897.899L714.336,897.899ZM714.895,877.899C750.59,877.985 786.268,888.73 816.009,908.57C856.248,935.414 885.302,978.647 894.424,1026.6C901.657,1064.63 896.505,1105.05 879.701,1140.04C860.424,1180.17 826.033,1212.87 784.801,1230.03C740.395,1248.51 688.78,1248.5 644.397,1230.03C603.283,1212.92 568.786,1180.2 549.497,1140.04C529.059,1097.48 526.045,1046.94 541.177,1002.26C559.521,948.1 604.389,903.788 659.386,886.388C677.098,880.785 695.653,877.944 714.303,877.899L714.895,877.899Z" style="fill:rgb(255,243,185);"/>
        <path d="M696.645,1129.22L696.645,1109.76C696.645,1109.76 701.566,1096.92 705.567,1086.48C708.818,1077.99 708.847,1068.61 705.648,1060.1C701.633,1049.43 696.645,1036.17 696.645,1036.17C696.645,1036.17 698.011,1021.8 699.283,1008.41C700.553,995.038 692.803,982.447 680.295,977.556C675.002,975.488 669.352,973.279 664.155,971.247C659.179,969.301 653.617,969.515 648.805,971.837C643.993,974.159 640.364,978.379 638.79,983.485C633.773,999.756 627.483,1020.16 627.483,1020.16L627.483,1063.43L640.986,1109.76L640.986,1129.22" style="fill:rgb(255,170,153);"/>
        <path d="M640.986,1129.22L640.986,1109.76C640.986,1109.76 627.92,1088.46 620.762,1076.79C617.78,1071.93 616.201,1066.34 616.201,1060.63L616.201,1025.59C616.201,1020.05 620.692,1015.56 626.231,1015.56L626.232,1015.56C631.771,1015.56 636.262,1020.05 636.262,1025.59L636.262,1052.01C636.262,1052.01 638.5,1052.85 641.915,1054.13C662.387,1061.82 675.947,1081.4 675.947,1103.27L675.947,1129.22L640.986,1129.22Z" style="fill:rgb(255,184,170);"/>
        <rect x="630.044" y="1125.29" width="70.704" height="23.82" style="fill:rgb(235,151,0);"/>
        <rect x="630.044" y="1145.49" width="70.704" height="12.69" style="fill:rgb(235,110,0);"/>
        <path d="M732.553,1129.22L732.553,1109.76C732.553,1109.76 727.632,1096.92 723.632,1086.48C720.38,1077.99 720.351,1068.61 723.551,1060.1C727.565,1049.43 732.553,1036.17 732.553,1036.17C732.553,1036.17 731.188,1021.8 729.916,1008.41C728.646,995.038 736.395,982.447 748.903,977.556C754.196,975.488 759.846,973.279 765.044,971.247C770.02,969.301 775.581,969.515 780.393,971.837C785.206,974.159 788.834,978.379 790.409,983.485C795.426,999.756 801.716,1020.16 801.716,1020.16L801.716,1063.43L788.213,1109.76L788.213,1129.22" style="fill:rgb(255,170,153);"/>
        <path d="M788.214,1129.22L788.214,1109.76C788.214,1109.76 801.279,1088.46 808.438,1076.79C811.42,1071.93 812.998,1066.34 812.998,1060.63L812.998,1025.59C812.998,1020.05 808.508,1015.56 802.968,1015.56C797.428,1015.56 792.938,1020.05 792.938,1025.59L792.938,1052.01C792.938,1052.01 790.698,1052.85 787.285,1054.13C766.812,1061.82 753.252,1081.4 753.252,1103.27L753.252,1129.22L788.214,1129.22Z" style="fill:rgb(255,184,170);"/>
        <rect x="728.451" y="1125.29" width="70.704" height="23.82" style="fill:rgb(235,151,0);"/>
        <rect x="728.451" y="1145.49" width="70.704" height="12.69" style="fill:rgb(235,110,0);"/>
        <path d="M864.669,378.977C829.241,379.058 794.076,392.782 767.958,416.879C746.065,437.08 730.657,464.169 724.715,493.408C716.915,531.793 725.604,573.164 748.492,605.134C769.432,634.383 801.689,655.352 836.938,662.343C872.736,669.444 911.193,662.273 941.947,642.545C976.364,620.469 1000.66,583.219 1006.5,542.497C1011.91,504.752 1001.56,465.105 978.36,434.943C953.898,403.142 915.873,382.247 875.245,379.344C871.724,379.093 868.185,378.973 864.669,378.977ZM865.229,318.978C904.899,319.068 944.089,330.925 976.902,352.672C1022.05,382.593 1054.61,431.255 1064.55,484.88C1072.32,526.815 1066.55,571.058 1048.16,609.496C1020.84,666.616 965.929,709.626 902.673,721.557C864.179,728.818 823.507,724.69 787.303,709.692C741.657,690.782 703.375,654.585 681.904,610.05C659.185,562.927 655.64,506.807 672.537,456.924C690.365,404.29 730.861,359.594 781.91,336.687C807.554,325.18 835.423,319.138 863.918,318.979C864.355,318.978 864.792,318.977 865.229,318.978Z" style="fill:white;"/>
        <path d="M864.899,348.978C960.471,348.978 1037.95,426.454 1037.95,522.026C1037.95,617.599 960.471,695.076 864.899,695.076C769.326,695.076 691.849,617.599 691.849,522.026C691.849,426.454 769.326,348.978 864.899,348.978Z" style="fill:white;"/>
        <path d="M864.634,358.977C824.216,359.07 784.14,374.734 754.393,402.18C729.088,425.528 711.447,456.934 704.865,490.67C698.238,524.632 702.701,560.723 717.611,592.01C739.544,638.034 783.819,672.683 834.541,682.25C874.879,689.859 918.121,681.587 952.742,659.379C992.109,634.127 1019.83,591.474 1026.36,544.826C1032.24,502.845 1021.11,458.788 995.688,424.701C966.431,385.463 919.333,360.383 869.37,359.037C867.791,358.994 866.211,358.976 864.634,358.977ZM865.194,338.978C910.708,339.082 956.036,356.823 989.569,388.041C1017.72,414.251 1037.41,449.559 1044.67,487.401C1051.96,525.426 1046.86,565.741 1030.24,600.615C1011.05,640.883 976.681,673.658 935.614,690.892C891.39,709.452 839.736,709.686 795.212,691.321C754.044,674.34 719.448,641.722 700.037,601.615C679.577,559.34 676.273,508.914 691.208,464.139C709.446,409.459 754.698,364.676 810.221,347.298C827.491,341.894 845.479,339.11 863.716,338.981C864.209,338.979 864.701,338.978 865.194,338.978Z" style="fill:rgb(255,243,185);"/>
        <rect x="754.549" y="532.119" width="24.432" height="21.296" style="fill:rgb(255,184,170);"/>
        <rect x="774.539" y="532.119" width="46.173" height="37.68" style="fill:rgb(235,110,0);"/>
        <path d="M763.879,532.119L748.411,532.119C746.172,532.119 744.356,533.934 744.356,536.174L744.356,569.798L753.526,569.798C755.887,569.798 757.901,568.091 758.289,565.762C759.904,556.04 763.879,532.119 763.879,532.119Z" style="fill:rgb(255,184,170);"/>
        <path d="M838.864,454.491C846.165,454.491 853.389,455.984 860.092,458.879C875.703,465.621 905.69,478.572 923.901,486.437C933.137,490.425 939.117,499.522 939.117,509.583C939.117,517.683 935.308,525.311 928.833,530.176C922.358,535.042 913.971,536.578 906.192,534.325C880.78,526.962 849.931,518.026 849.931,518.026L849.931,552.603C849.931,557.163 848.12,561.537 844.895,564.762C841.67,567.987 837.296,569.798 832.735,569.798L809.974,569.798L809.974,478.28C809.974,471.97 812.48,465.92 816.942,461.458C821.403,456.998 827.454,454.491 833.763,454.491L838.864,454.491Z" style="fill:rgb(235,110,0);"/>
        <path d="M932.779,502.25C929.994,495.139 922.371,491.195 914.959,493.027C898.46,497.105 872.061,503.63 872.061,503.63L866.386,536.405C866.386,536.405 900.763,527.908 922.248,522.597C926.508,521.544 930.107,518.707 932.124,514.81C934.141,510.913 934.379,506.335 932.779,502.25Z" style="fill:rgb(235,151,0);"/>
        <path d="M926.629,569.799C926.629,563.999 922.358,559.083 916.615,558.274C904.951,556.629 887.259,554.134 887.259,554.134L887.259,564.573C887.259,567.459 889.599,569.799 892.485,569.799L926.629,569.799Z" style="fill:rgb(255,184,170);"/>
        <path d="M903.969,551.909L872.059,503.628C872.059,503.628 866.954,504.889 860.675,506.442C855.705,507.67 851.718,511.373 850.126,516.239C848.534,521.104 849.561,526.447 852.843,530.376C866.003,546.127 882.918,566.373 882.918,566.373L903.969,551.909Z" style="fill:rgb(235,151,0);"/>
        <path d="M966.724,526.329L947.97,526.329C938.899,526.329 931.546,533.682 931.546,542.753L931.546,558.514C931.546,564.747 936.598,569.799 942.831,569.799L966.724,569.799L966.724,526.329Z" style="fill:rgb(255,184,170);"/>
        <path d="M966.724,526.329L949.135,526.329L949.135,527.183C949.135,530.176 950.324,533.046 952.44,535.163C954.557,537.279 957.427,538.468 960.42,538.468L966.724,538.468L966.724,526.329Z" style="fill:rgb(235,110,0);"/>
        <path d="M966.724,526.329L980.958,526.329C987.087,526.329 992.055,531.297 992.055,537.425L992.055,558.704C992.055,564.832 987.087,569.799 980.958,569.799L966.724,569.799L966.724,526.329Z" style="fill:rgb(235,151,0);"/>
        <rect x="729.937" y="569.799" width="269.927" height="11.762" style="fill:rgb(255,243,185);"/>
        <path d="M1533.46,282.691C1497.6,282.777 1461.86,296.927 1435.66,321.617C1402.63,352.738 1385.68,399.899 1392.01,445.541C1397.56,485.621 1421.12,522.733 1454.84,545.081C1493.51,570.709 1544.7,575.969 1588.13,558.057C1626.71,542.145 1657.67,508.639 1670.25,468.464C1681.44,432.754 1677.94,392.659 1660.41,359.325C1640.49,321.456 1602.91,293.126 1560.13,285.128C1551.34,283.485 1542.39,282.685 1533.46,282.691ZM1534.02,222.691C1573.36,222.785 1612.67,234.562 1645.44,256.22C1690.55,286.025 1723.1,334.268 1733.23,387.969C1741.17,430.079 1735.44,474.584 1716.96,513.209C1689.63,570.347 1634.65,613.353 1571.47,625.272C1533.01,632.526 1492.38,628.437 1456.1,613.406C1410.43,594.488 1372.18,558.32 1350.7,513.763C1328.13,466.938 1324.52,411.28 1340.94,361.818C1354.85,319.886 1382.96,282.798 1419.41,257.921C1451.39,236.099 1489.96,223.734 1528.47,222.757C1530.32,222.71 1532.18,222.69 1534.02,222.691Z" style="fill:white;"/>
        <path d="M1533.7,252.691C1629.27,252.691 1706.75,330.168 1706.75,425.74C1706.75,521.313 1629.27,598.79 1533.7,598.79C1438.13,598.79 1360.65,521.313 1360.65,425.74C1360.65,330.168 1438.13,252.691 1533.7,252.691Z" style="fill:white;"/>
        <path d="M1533.43,262.691C1492.64,262.789 1452.32,278.692 1422.48,306.562C1389.94,336.937 1370.58,380.67 1370.65,426.004C1370.7,459.934 1381.68,493.807 1401.6,521.287C1425.63,554.43 1462.54,578.139 1502.84,585.87C1544.05,593.774 1588.14,585.1 1623.19,562.023C1661.83,536.583 1688.82,494.298 1695.2,448.285C1700.97,406.633 1689.98,362.917 1664.93,329.007C1636.81,290.944 1591.66,266.035 1544.17,263.022C1540.6,262.796 1537.02,262.688 1533.43,262.691ZM1533.99,242.691C1568.92,242.775 1603.71,253 1633.04,272C1674.5,298.861 1704.4,343.005 1713.58,391.676C1720.73,429.625 1715.57,469.777 1698.92,504.578C1674.28,556.086 1624.69,594.879 1567.76,605.618C1522.6,614.137 1474.21,604.955 1435.29,580.077C1398.68,556.677 1370.77,519.868 1358.31,478.263C1344.93,433.586 1349.41,383.653 1370.95,341.934C1396.51,292.423 1445.5,255.623 1501.04,245.603C1511.91,243.641 1523.05,242.683 1533.99,242.691Z" style="fill:rgb(255,243,185);"/>
        <path d="M1437.98,434.529L1486.56,434.529C1493.3,434.529 1499.76,437.205 1504.52,441.968C1509.68,447.126 1516.45,453.9 1521.22,458.667C1522.77,460.213 1523.64,462.31 1523.64,464.497C1523.64,466.682 1522.77,468.779 1521.22,470.325C1519.68,471.871 1517.58,472.74 1515.39,472.74C1513.21,472.74 1511.11,471.871 1509.56,470.325C1506.83,467.589 1503.75,464.513 1501.82,462.585C1500.77,461.532 1499.06,461.532 1498.01,462.585L1498.01,462.586C1496.95,463.641 1496.95,465.351 1498.01,466.405C1500.7,469.096 1505.72,474.118 1509.68,478.075C1513.34,481.736 1518.3,483.792 1523.48,483.792L1559.96,483.792C1565.29,483.792 1569.61,488.114 1569.61,493.445C1569.61,498.156 1566.08,502.119 1561.4,502.663C1547.27,504.306 1518.54,507.647 1504.78,509.248C1499.77,509.831 1494.7,508.876 1490.24,506.514C1478.09,500.07 1453.99,487.295 1453.99,487.295L1437.98,487.295L1437.98,434.529Z" style="fill:rgb(255,184,170);"/>
        <rect x="1414.17" y="434.529" width="23.81" height="56.983" style="fill:rgb(235,110,0);"/>
        <path d="M1523.65,361.592C1523.65,361.592 1542.74,352.311 1555.08,346.314C1561.58,343.154 1569.13,342.976 1575.77,345.825C1593.94,353.619 1629.42,368.837 1629.42,368.837L1525.12,387.292L1523.65,361.592Z" style="fill:rgb(255,170,153);"/>
        <rect x="1629.42" y="368.837" width="23.8" height="56.984" style="fill:rgb(235,151,0);"/>
        <path d="M1501.95,386.699C1501.95,386.699 1512,405.865 1516.59,414.606C1517.96,417.222 1520.67,418.861 1523.63,418.861L1560.28,418.861C1564.63,418.861 1568.73,416.851 1571.4,413.417C1575.78,407.764 1582.01,399.74 1582.01,399.74L1582.01,386.699L1501.95,386.699Z" style="fill:rgb(255,170,153);"/>
        <rect x="1476.08" y="361.592" width="89.64" height="47.334" style="fill:rgb(235,110,0);"/>
        <path d="M1496.92,372.403C1497.57,372.403 1498.2,372.145 1498.66,371.683C1499.12,371.222 1499.38,370.598 1499.38,369.946L1499.38,369.945C1499.38,369.293 1499.12,368.668 1498.66,368.208C1498.2,367.747 1497.57,367.488 1496.92,367.488L1484.43,367.488C1483.78,367.488 1483.16,367.747 1482.7,368.208C1482.23,368.668 1481.98,369.293 1481.98,369.945L1481.98,369.946C1481.98,370.598 1482.23,371.222 1482.7,371.683C1483.16,372.145 1483.78,372.403 1484.43,372.403L1496.92,372.403Z" style="fill:rgb(235,151,0);"/>
        <path d="M1544.88,398.115C1544.23,398.115 1543.61,398.375 1543.15,398.835C1542.69,399.295 1542.43,399.92 1542.43,400.572L1542.43,400.573C1542.43,401.225 1542.69,401.85 1543.15,402.311C1543.61,402.772 1544.23,403.03 1544.88,403.03L1557.37,403.03C1558.02,403.03 1558.65,402.772 1559.11,402.311C1559.57,401.85 1559.83,401.225 1559.83,400.573L1559.83,400.572C1559.83,399.92 1559.57,399.295 1559.11,398.835C1558.65,398.375 1558.02,398.115 1557.37,398.115L1544.88,398.115Z" style="fill:rgb(235,151,0);"/>
        <path d="M1520.9,372.739C1527.81,372.739 1533.42,378.344 1533.42,385.259C1533.42,392.173 1527.81,397.779 1520.9,397.779C1513.98,397.779 1508.38,392.173 1508.38,385.259C1508.38,378.344 1513.98,372.739 1520.9,372.739Z" style="fill:rgb(235,151,0);"/>
        <path d="M1539.34,381.078C1539.34,377.023 1542.51,373.675 1546.55,373.45C1567.93,372.26 1629.42,368.837 1629.42,368.837L1629.42,421.604C1629.42,421.604 1599.53,416.325 1585.76,413.892C1581.39,413.12 1577.48,410.701 1574.84,407.134C1570.96,401.886 1565.72,394.814 1565.72,394.814C1565.72,394.814 1552.78,391.399 1545.03,389.352C1541.68,388.467 1539.34,385.434 1539.34,381.965L1539.34,381.078Z" style="fill:rgb(255,184,170);"/>
        <path d="M1868.08,684.634C1825.86,684.736 1784.35,704.341 1757.39,737.398C1728.39,772.962 1717.93,822.747 1730.87,867.465C1745.29,917.308 1788.62,957.907 1840.79,968.086C1877.06,975.166 1916.04,967.586 1946.99,947.143C1980.61,924.935 2004.17,888.14 2009.91,848.148C2015.22,811.142 2005.39,772.155 1982.94,742.143C1958.54,709.517 1919.87,688.075 1879.11,685.035C1875.44,684.761 1871.77,684.632 1868.08,684.634ZM1868.64,624.634C1908.44,624.73 1947.72,636.658 1980.57,658.498C2031.1,692.096 2065.26,748.937 2070.59,809.845C2073.73,845.76 2067.18,882.534 2051.58,915.153C2030.23,959.782 1992.03,996.075 1946.48,1015.11C1897.42,1035.61 1840.38,1035.92 1790.71,1015.35C1745.16,996.478 1706.95,960.401 1685.45,915.985C1662.66,868.893 1659.09,812.849 1675.75,763.172C1693.5,710.23 1734.11,665.331 1785.32,642.345C1811,630.816 1838.85,624.798 1867.33,624.636C1867.77,624.634 1868.2,624.634 1868.64,624.634Z" style="fill:white;"/>
        <path d="M1868.31,654.634C1963.89,654.634 2041.36,732.112 2041.36,827.684C2041.36,923.256 1963.89,1000.73 1868.31,1000.73C1772.74,1000.73 1695.26,923.256 1695.26,827.684C1695.26,732.112 1772.74,654.634 1868.31,654.634Z" style="fill:white;"/>
        <path d="M1868.05,664.634C1828.05,664.73 1788.38,680.038 1758.71,707.01C1725.22,737.462 1705.19,782.167 1705.26,827.948C1705.33,871.5 1723.68,914.655 1755.14,945.01C1777.6,966.686 1806.33,981.74 1836.96,987.716C1868.17,993.807 1901.14,990.595 1930.6,978.395C1967.31,963.191 1997.98,934.2 2015.28,898.335C2037.05,853.192 2036.48,797.964 2013.29,753.052C1990.44,708.784 1946.88,676.073 1897.17,667.182C1887.83,665.512 1878.34,664.672 1868.84,664.635C1868.58,664.634 1868.31,664.634 1868.05,664.634ZM1868.61,644.634C1914.74,644.745 1959.85,662.762 1993.19,693.885C2021.24,720.079 2040.75,755.172 2048.03,792.777C2055.39,830.806 2050.37,871.197 2033.66,906.271C2014.42,946.643 1979.93,979.456 1938.77,996.658C1894.57,1015.13 1843.1,1015.4 1798.37,996.872C1757.26,979.84 1722.74,947.274 1703.33,907.022C1682.89,864.619 1679.71,814.267 1694.71,769.53C1710.72,721.796 1747.35,681.311 1793.51,660.591C1816.73,650.167 1842.3,644.779 1867.43,644.636C1867.82,644.634 1868.21,644.634 1868.61,644.634Z" style="fill:rgb(255,243,185);"/>
        <rect x="1925.24" y="813.319" width="37.85" height="99.07" style="fill:rgb(235,151,0);"/>
        <rect x="1925.24" y="835.569" width="37.85" height="76.822" style="fill:rgb(255,218,43);"/>
        <rect x="1811.38" y="813.319" width="113.86" height="99.07" style="fill:rgb(255,218,43);"/>
        <rect x="1773.53" y="813.319" width="37.85" height="99.07" style="fill:rgb(255,218,43);"/>
        <rect x="1773.53" y="813.319" width="37.85" height="22.248" style="fill:rgb(235,151,0);"/>
        <path d="M1925.24,813.319L1811.38,813.319L1811.38,794.843C1811.38,772.212 1829.73,753.867 1852.36,753.867L1884.26,753.867C1906.89,753.867 1925.24,772.212 1925.24,794.843L1925.24,813.319Z" style="fill:rgb(235,151,0);"/>
        <path d="M1866.12,709.084C1863.26,711.509 1861.44,715.125 1861.44,719.162C1861.44,726.457 1867.36,732.378 1874.66,732.378C1878.7,732.378 1882.31,730.565 1884.74,727.698C1883.67,735.818 1876.71,742.085 1868.31,742.085C1859.16,742.085 1851.74,734.659 1851.74,725.51C1851.74,717.107 1858,710.155 1866.12,709.084Z" style="fill:rgb(235,110,0);"/>
        <path d="M1897.17,855.419C1897.17,849.581 1894.11,844.171 1889.1,841.172C1880.56,836.06 1868.31,828.726 1868.31,828.726C1868.31,828.726 1856.06,836.06 1847.52,841.172C1842.52,844.171 1839.45,849.581 1839.45,855.419L1839.45,912.393L1897.17,912.393L1897.17,855.419Z" style="fill:rgb(235,110,0);"/>
        <path d="M1676.42,1161.95C1647.53,1162.03 1618.69,1171.03 1594.95,1187.6C1561.87,1210.69 1539.23,1248.07 1534.56,1288.33C1530.19,1325.99 1541.35,1365.03 1565.19,1394.62C1591.8,1427.64 1633.46,1447.91 1676.19,1448.05C1712.74,1448.17 1749.06,1433.65 1775.47,1408.39C1810.04,1375.33 1826.61,1324.9 1816.88,1276.6C1809.7,1240.96 1788.33,1208.52 1758.35,1187.6C1734.93,1171.25 1706.65,1162.21 1677.81,1161.96C1677.35,1161.95 1676.88,1161.95 1676.42,1161.95ZM1676.98,1101.95C1716.75,1102.06 1756.39,1114.05 1789.41,1136.16C1834.07,1166.05 1866.14,1214 1876.18,1267.23C1884.12,1309.29 1878.42,1353.78 1859.92,1392.47C1836.02,1442.43 1790.93,1481.85 1737.9,1498.63C1692.86,1512.88 1642.96,1510.86 1599.05,1492.67C1544.41,1470.03 1500.8,1422.71 1482.93,1365.95C1467.21,1316.03 1471.74,1260.14 1495.43,1213.39C1519.77,1165.36 1563.66,1127.75 1615.4,1111.38C1634.86,1105.22 1655.22,1102.06 1675.67,1101.96C1676.11,1101.95 1676.55,1101.95 1676.98,1101.95Z" style="fill:white;"/>
        <path d="M1676.65,1131.95C1772.22,1131.95 1849.7,1209.43 1849.7,1305C1849.7,1400.58 1772.22,1478.05 1676.65,1478.05C1581.08,1478.05 1503.6,1400.58 1503.6,1305C1503.6,1209.43 1581.08,1131.95 1676.65,1131.95Z" style="fill:white;"/>
        <path d="M1676.39,1141.95C1644.66,1142.04 1612.69,1151.63 1586.14,1169.4C1542.16,1198.83 1513.78,1250.31 1513.6,1304.48C1513.46,1348.3 1531.84,1391.89 1563.65,1422.5C1593.55,1451.27 1634.54,1467.98 1676.39,1468.05C1707.06,1468.11 1737.74,1459.3 1763.67,1442.89C1796.11,1422.35 1820.94,1390.15 1832.37,1353.47C1844.98,1312.98 1841.06,1267.42 1821.18,1229.5C1798.46,1186.16 1755.57,1153.94 1707.01,1144.78C1696.92,1142.88 1686.74,1141.94 1676.39,1141.95ZM1676.95,1121.95C1723.62,1122.08 1769.58,1140.64 1803.12,1172.71C1838.95,1206.98 1859.94,1255.91 1859.7,1305.89C1859.51,1344.49 1846.75,1382.88 1823.8,1413.84C1797,1450.01 1756.58,1475.86 1712.12,1484.61C1676.9,1491.54 1639.64,1487.89 1606.45,1474.09C1565.26,1456.96 1530.83,1424.23 1511.55,1384.09C1490.96,1341.24 1488.03,1290.31 1503.59,1245.26C1522.13,1191.6 1566.62,1147.79 1621.44,1130.44C1639.06,1124.87 1657.42,1122.03 1676.06,1121.95L1676.95,1121.95Z" style="fill:rgb(255,243,185);"/>
        <path d="M1654.46,1384.02C1654.46,1384.02 1597.92,1371.62 1574.37,1366.46C1568.47,1365.17 1564.26,1359.94 1564.26,1353.9L1564.26,1338.37L1654.46,1358.15L1654.46,1384.02Z" style="fill:rgb(235,110,0);"/>
        <path d="M1676.65,1363.01L1698.84,1358.15L1698.84,1383.79C1698.84,1386.6 1696.55,1388.89 1693.74,1388.89L1659.56,1388.89C1656.74,1388.89 1654.46,1386.6 1654.46,1383.79L1654.46,1358.15L1676.65,1363.01Z" style="fill:rgb(235,81,0);"/>
        <path d="M1698.84,1384.02C1698.84,1384.02 1755.39,1371.62 1778.94,1366.46C1784.84,1365.17 1789.04,1359.94 1789.04,1353.9L1789.04,1338.37L1698.84,1358.15L1698.84,1384.02Z" style="fill:rgb(235,110,0);"/>
        <path d="M1676.65,1373.01C1676.65,1373.01 1598.19,1355.81 1572.38,1350.15C1567.64,1349.11 1564.26,1344.91 1564.26,1340.05L1564.26,1265.81C1564.26,1264.1 1565.03,1262.49 1566.36,1261.42C1567.69,1260.35 1569.43,1259.94 1571.1,1260.3C1595.48,1265.65 1676.65,1283.45 1676.65,1283.45C1676.65,1283.45 1757.82,1265.65 1782.2,1260.3C1783.86,1259.94 1785.61,1260.35 1786.94,1261.42C1788.27,1262.49 1789.04,1264.1 1789.04,1265.81L1789.04,1340.05C1789.04,1344.91 1785.66,1349.11 1780.92,1350.15C1755.11,1355.81 1676.65,1373.01 1676.65,1373.01Z" style="fill:rgb(235,151,0);"/>
        <path d="M1676.65,1283.44L1575.04,1261.16L1575.04,1338.41L1663.54,1357.82C1663.54,1357.82 1664.32,1356.29 1665.26,1354.47C1667.17,1350.72 1671.02,1348.37 1675.22,1348.37L1676.65,1348.37L1676.65,1283.44Z" style="fill:rgb(255,243,185);"/>
        <path d="M1676.65,1272.38C1676.65,1260.79 1668.17,1250.94 1656.71,1249.22C1632.47,1245.59 1594.78,1239.93 1594.78,1239.93L1594.78,1317.18C1594.78,1317.18 1637.44,1323.58 1661.17,1327.14C1670.07,1328.47 1676.65,1336.12 1676.65,1345.11L1676.65,1348.37L1676.65,1272.38Z" style="fill:rgb(255,249,220);"/>
        <path d="M1607.38,1252.95C1626.9,1255.41 1646.43,1257.18 1665.06,1264.48C1665.06,1264.48 1667.84,1266.31 1666.41,1268.34C1665.09,1270.21 1662,1268.63 1659.29,1267.67C1642.52,1261.79 1624.61,1260.16 1606.75,1257.91C1606.75,1257.91 1605.59,1257.72 1604.99,1256.82C1604.06,1255.44 1605.01,1253.23 1606.67,1252.97C1607.12,1252.89 1607.23,1252.94 1607.38,1252.95Z" style="fill:rgb(255,227,93);"/>
        <path d="M1607.38,1269.06C1626.87,1271.51 1646.52,1273.37 1664.83,1280.5C1664.83,1280.5 1667.57,1281.98 1666.65,1284.03C1666.19,1285.04 1665,1285.67 1663.91,1285.46C1663.15,1285.32 1662.97,1285.14 1662.57,1284.99C1644.83,1278.16 1625.45,1276.37 1606.75,1274.02C1606.75,1274.02 1604.43,1273.2 1604.57,1271.35C1604.66,1270.23 1605.57,1269.25 1606.67,1269.07C1607.12,1269 1607.23,1269.05 1607.38,1269.06Z" style="fill:rgb(255,227,93);"/>
        <path d="M1607.38,1285.17C1626.82,1287.62 1646.52,1289.49 1664.6,1296.52C1665.52,1296.88 1666.41,1297.39 1666.72,1298.28C1667.3,1299.93 1665.64,1301.9 1663.91,1301.57C1663.15,1301.43 1662.97,1301.25 1662.57,1301.1C1644.87,1294.29 1625.45,1292.48 1606.75,1290.13C1606.75,1290.13 1605.1,1289.72 1604.68,1288.4C1604.25,1287.02 1605.25,1285.41 1606.67,1285.18C1607.12,1285.11 1607.23,1285.16 1607.38,1285.17Z" style="fill:rgb(255,227,93);"/>
        <path d="M1607.38,1301.28C1626.95,1303.74 1646.43,1305.51 1665.06,1312.81C1665.06,1312.81 1667.37,1314.17 1666.73,1316.03C1666.3,1317.31 1664.77,1318 1663.45,1317.55C1645.68,1310.54 1625.75,1308.63 1606.75,1306.24C1606.75,1306.24 1605.1,1305.83 1604.68,1304.51C1604.25,1303.13 1605.25,1301.52 1606.67,1301.29C1607.12,1301.22 1607.23,1301.27 1607.38,1301.28Z" style="fill:rgb(255,227,93);"/>
        <path d="M1575.04,1261.16L1594.78,1239.93L1594.78,1317.17L1575.04,1338.41L1575.04,1261.16Z" style="fill:rgb(255,227,93);"/>
        <path d="M1676.65,1283.44L1778.25,1261.16L1778.25,1338.41L1689.75,1357.82C1689.75,1357.82 1688.97,1356.29 1688.04,1354.47C1686.13,1350.72 1682.28,1348.37 1678.07,1348.37L1676.65,1348.37L1676.65,1283.44Z" style="fill:rgb(255,243,185);"/>
        <path d="M1675.22,1348.37L1678.07,1348.37C1682.28,1348.37 1686.13,1350.72 1688.04,1354.47C1688.97,1356.29 1689.75,1357.82 1689.75,1357.82L1676.65,1360.69L1663.54,1357.82C1663.54,1357.82 1664.32,1356.29 1665.26,1354.47C1667.17,1350.72 1671.02,1348.37 1675.22,1348.37Z" style="fill:rgb(235,110,0);"/>
        <path d="M1676.65,1272.38C1676.65,1260.79 1685.13,1250.94 1696.59,1249.22C1720.82,1245.59 1758.52,1239.93 1758.52,1239.93L1758.52,1317.18C1758.52,1317.18 1715.86,1323.58 1692.13,1327.14C1683.23,1328.47 1676.65,1336.12 1676.65,1345.11L1676.65,1348.37L1676.65,1272.38Z" style="fill:rgb(255,249,220);"/>
        <path d="M1746.39,1252.94C1748.47,1253.17 1748.53,1254.05 1748.69,1255C1748.93,1256.34 1747.89,1257.68 1746.54,1257.91C1727.51,1260.31 1708.45,1261.98 1690.29,1269.05L1689.62,1269.3C1688.01,1269.68 1687.54,1269.11 1687.03,1268.53C1686.02,1267.34 1686.47,1265.27 1688.01,1264.57C1706.41,1257.31 1726.08,1255.45 1745.92,1252.95C1745.92,1252.95 1746.14,1252.93 1746.39,1252.94Z" style="fill:rgb(255,227,93);"/>
        <path d="M1746.39,1269.04C1748.47,1269.28 1748.53,1270.16 1748.69,1271.11C1748.93,1272.44 1747.89,1273.78 1746.54,1274.02C1727.43,1276.42 1708.06,1278.19 1690.07,1285.24C1690.07,1285.24 1686.55,1285.78 1686.43,1283.11C1686.4,1282.24 1686.85,1281.36 1687.59,1280.89C1688.26,1280.47 1688.51,1280.48 1688.93,1280.32C1706.98,1273.38 1726.71,1271.47 1745.92,1269.06C1745.92,1269.06 1746.14,1269.04 1746.39,1269.04Z" style="fill:rgb(255,227,93);"/>
        <path d="M1746.39,1285.15C1749.19,1285.47 1748.9,1287.11 1748.68,1288.17C1748.46,1289.18 1747.57,1289.95 1746.54,1290.13C1727.35,1292.55 1708.01,1294.27 1689.85,1301.44C1689.85,1301.44 1686.77,1301.75 1686.45,1299.46C1686.13,1297.11 1689.68,1296.1 1692.58,1295.09C1709.63,1289.15 1727.88,1287.44 1745.92,1285.17C1745.92,1285.17 1746.14,1285.15 1746.39,1285.15Z" style="fill:rgb(255,227,93);"/>
        <path d="M1746.39,1301.26C1747.61,1301.4 1748.63,1302.37 1748.72,1303.56C1748.81,1304.68 1748.06,1305.79 1747.01,1306.14C1745.95,1306.48 1745.49,1306.37 1744.75,1306.46C1726.29,1308.74 1707.46,1310.69 1690.29,1317.38L1689.62,1317.63C1688.09,1317.99 1687.65,1317.46 1687.2,1317.02C1686.01,1315.89 1686.41,1313.62 1688.01,1312.9C1706.31,1305.68 1726.08,1303.78 1745.92,1301.28C1745.92,1301.28 1746.14,1301.26 1746.39,1301.26Z" style="fill:rgb(255,227,93);"/>
        <path d="M1778.25,1261.16L1758.52,1239.93L1758.52,1317.17L1778.25,1338.41L1778.25,1261.16Z" style="fill:rgb(255,227,93);"/>
        <path d="M1734.92,1328.66L1719.99,1331.32L1719.99,1358.15L1734.92,1355.16L1734.92,1328.66Z" style="fill:rgb(235,81,0);"/>
    </g>
</svg>
